<svg id="logo" xmlns="http://www.w3.org/2000/svg" viewBox="0 0 2708.84 1308.56"><defs><style>.cls-1,.cls-2{fill:#FFFFFF; opacity: 0.5;}.cls-2{fill-rule:evenodd;}</style></defs><g id="mask"><polygon id="_9" data-name="9" class="cls-1" points="93.2 848.03 14.89 1308.56 0 1308.56 0 1001.02 93.2 848.03"/><polygon id="_8" data-name="8" class="cls-1" points="94.78 716.69 0 757.1 0 604.89 94.78 716.69"/><polygon id="_7" data-name="7" class="cls-1" points="96.8 702.82 0 588.63 0 9 11.08 9 96.8 702.82"/><polygon id="_6" data-name="6" class="cls-1" points="97.98 819.99 0 980.8 0 796.41 97.98 819.99"/><polygon id="_5" data-name="5" class="cls-1" points="257.25 1308.56 31.05 1308.56 167.85 862.06 257.25 1308.56"/><polygon id="_4" data-name="4" class="cls-1" points="275.36 9 162.44 649.23 24.41 9 275.36 9"/><polygon id="_3" data-name="3" class="cls-1" points="539.29 9 171.84 656.58 286.02 9 539.29 9"/><polygon id="_2" data-name="2" class="cls-1" points="544 31.09 544 736.68 234.56 704.42 544 31.09"/><polygon id="_1" data-name="1" class="cls-1" points="544 767.75 544 1267.1 247.19 805.39 544 767.75"/><polygon id="_0" data-name="0" class="cls-1" points="544 1305.15 544 1308.56 267.95 1308.56 181.88 878.59 544 1305.15"/></g><g id="text"><g id="LABORATORIES"><path id="S" class="cls-2" d="M2747.58,1318.23c0,9.51-2.94,17.52-8.76,24s-15.06,9.72-27.51,9.72q-33,0-36.78-37.5l17.61-2.16q3,21,19.65,21c5.52,0,9.84-1.44,13-4.29a13.82,13.82,0,0,0,4.74-10.65,11.69,11.69,0,0,0-1.68-6.36,12.11,12.11,0,0,0-5-4.29q-3.37-1.67-16.35-5.64-11.57-3.51-17-7.59a29.21,29.21,0,0,1-8.55-10.8,33,33,0,0,1-3.18-14.4,32,32,0,0,1,4.08-16.14,26.7,26.7,0,0,1,11.28-10.83q7.2-3.64,17.76-3.66c10.59,0,18.87,2.85,24.81,8.61s9.09,14,9.45,24.63l-18.24.9c-.78-5.85-2.52-10-5.19-12.27s-6.42-3.48-11.34-3.48-8.67,1-11.34,3a9.13,9.13,0,0,0-4,7.53,9.33,9.33,0,0,0,3.66,7.44c2.43,2,7.95,4.29,16.56,6.78,9.15,2.67,15.72,5.49,19.8,8.37a28.5,28.5,0,0,1,9.3,11.31C2746.5,1306.05,2747.58,1311.66,2747.58,1318.23Z" transform="translate(-45.58 -45.72)"/><polygon id="E" class="cls-2" points="2520.77 1285.83 2520.77 1304.37 2452.46 1304.37 2452.46 1194.72 2519.09 1194.72 2519.09 1213.26 2470.55 1213.26 2470.55 1237.47 2515.73 1237.47 2515.73 1255.98 2470.55 1255.98 2470.55 1285.83 2520.77 1285.83"/><rect id="I" class="cls-1" x="2326.21" y="1194.72" width="18.06" height="109.65"/><path id="R" class="cls-2" d="M2252.66,1328.7c-4.44-8.55-7.89-14.52-10.44-17.82a45.7,45.7,0,0,0-9.66-9.18q11.39-2,17.55-9.87c4.11-5.22,6.15-12.15,6.15-20.73a35.92,35.92,0,0,0-4-17.46c-2.7-4.83-6.12-8.25-10.32-10.23s-11.16-3-20.94-3h-38.22v109.65h18.09v-45.78h3.75q6.26,0,9.09,1.26a14.1,14.1,0,0,1,5.4,4.47q2.57,3.29,9.63,16.23l13.17,23.82h21.72Zm-38.34-41.85h-13.47V1259h14.22c8.13,0,13,.27,14.73.81a10.8,10.8,0,0,1,5.7,4.41,14.89,14.89,0,0,1,2.1,8.4c0,3.66-.69,6.6-2.1,8.79a9.88,9.88,0,0,1-5.46,4.35C2227.79,1286.52,2222.57,1286.85,2214.32,1286.85Z" transform="translate(-45.58 -45.72)"/><path id="O" class="cls-2" d="M2062.43,1253.34c-8.1-9.84-18.54-14.73-31.41-14.73q-13.27,0-22.65,6.21c-6.21,4.14-11.28,10.44-15.12,18.87s-5.79,19.2-5.79,32.25q0,27,12.84,42.48,11.29,13.5,30.78,13.5t30.63-13.68q12.87-15.43,12.87-43Q2074.58,1268.06,2062.43,1253.34Zm-13.59,70.23c-4.65,6.27-10.59,9.39-17.73,9.39s-13-3.15-17.82-9.45-7.17-15.72-7.17-28.32c0-12.84,2.34-22.29,7-28.41s10.62-9.18,18-9.18a21.35,21.35,0,0,1,17.94,9.12c4.56,6,6.84,15.45,6.84,28.08Q2055.89,1314.24,2048.84,1323.57Z" transform="translate(-45.58 -45.72)"/><polygon id="T" class="cls-2" points="1833.7 1194.72 1833.7 1213.26 1807.03 1213.26 1807.03 1304.37 1788.97 1304.37 1788.97 1213.26 1762.33 1213.26 1762.33 1194.72 1833.7 1194.72"/><path id="A" class="cls-2" d="M1663.81,1240.44h-19.35l-34.92,109.65h19.29l7.41-24.81h36.15l7.68,24.81h19.65Zm-22,66.33,12.21-40.71,12.45,40.71Z" transform="translate(-45.58 -45.72)"/><path id="R-2" data-name="R" class="cls-2" d="M1490.41,1328.7c-4.44-8.58-7.89-14.52-10.44-17.82a45.7,45.7,0,0,0-9.66-9.18q11.39-2,17.55-9.87c4.11-5.22,6.15-12.15,6.15-20.73a35.92,35.92,0,0,0-4-17.46c-2.7-4.83-6.12-8.25-10.32-10.23s-11.16-3-20.94-3h-38.22v109.65h18.09v-45.78h3.75c4.17,0,7.23.42,9.09,1.26a14.1,14.1,0,0,1,5.4,4.47q2.57,3.29,9.66,16.23l13.14,23.82h21.72Zm-38.34-41.85H1438.6V1259h14.22c8.13,0,13,.27,14.73.81a10.8,10.8,0,0,1,5.7,4.41,14.89,14.89,0,0,1,2.1,8.4c0,3.66-.69,6.6-2.1,8.79a9.88,9.88,0,0,1-5.46,4.35C1465.54,1286.49,1460.32,1286.85,1452.07,1286.85Z" transform="translate(-45.58 -45.72)"/><path id="O-2" data-name="O" class="cls-2" d="M1300.18,1253.34c-8.1-9.84-18.54-14.73-31.41-14.73q-13.27,0-22.65,6.21c-6.21,4.14-11.28,10.44-15.12,18.87s-5.79,19.2-5.79,32.25q0,27,12.84,42.48,11.25,13.5,30.78,13.5,19.35,0,30.63-13.68,12.87-15.43,12.87-43Q1312.33,1268.06,1300.18,1253.34Zm-13.56,70.23c-4.68,6.27-10.62,9.39-17.76,9.39s-13-3.15-17.82-9.45-7.17-15.72-7.17-28.32c0-12.84,2.34-22.29,7-28.41s10.62-9.18,18-9.18a21.35,21.35,0,0,1,17.94,9.12c4.59,6,6.84,15.45,6.84,28.08Q1293.64,1314.24,1286.62,1323.57Z" transform="translate(-45.58 -45.72)"/><path id="B" class="cls-2" d="M1112.53,1301.58a24,24,0,0,0-12.39-9.72,23,23,0,0,0,9.09-9.48,30.85,30.85,0,0,0-.63-29.73c-2.73-4.53-6.09-7.71-10.11-9.48s-10.92-2.73-20.73-2.73h-36.09l0,109.65h30.6q19.89,0,25.35-1.35,7.88-1.93,13.62-10.2t5.76-20.22C1117,1311.72,1115.53,1306.17,1112.53,1301.58Zm-52.77-42.9h10.53c9.63,0,15.48.24,17.49.75a8.83,8.83,0,0,1,5.19,3.78,13.37,13.37,0,0,1,2.16,7.92c0,3.66-.87,6.54-2.64,8.67a11.5,11.5,0,0,1-7.29,3.93q-2.57.36-13.41.36h-12Zm36.45,67.17a10.75,10.75,0,0,1-5.28,4.56c-2.13.78-6.87,1.17-14.28,1.17h-16.89v-29.25l14.73,0c7.8,0,13,.45,15.48,1.32a11.88,11.88,0,0,1,6.09,4.77,18.39,18.39,0,0,1,.15,17.46Z" transform="translate(-45.58 -45.72)"/><path id="A-2" data-name="A" class="cls-2" d="M897.57,1240.44H878.22l-35,109.65h19.32l7.41-24.81h36.15l7.68,24.81h19.65Zm-22,66.33,12.18-40.71,12.45,40.71Z" transform="translate(-45.58 -45.72)"/><polygon id="L" class="cls-2" points="689.51 1285.86 689.51 1304.37 626.27 1304.37 626.27 1195.65 644.33 1195.65 644.33 1285.86 689.51 1285.86"/></g><g id="XSERV"><polygon id="V" class="cls-1" points="2708.84 7.89 2572.07 1149.72 2481.14 1149.72 2343.68 9 2435.42 9 2526.59 770.16 2617.91 7.89 2708.84 7.89"/><path id="R-3" data-name="R" class="cls-2" d="M2273.22,610.68c18.66-26.64,28-56.58,28-89.37V302.67c0-225-63-241.44-179.88-241.44H1948.44V1195.44H2046V724.29h59.34q14.89,0,32,9.15a153.7,153.7,0,0,1,32,22.86A131.77,131.77,0,0,1,2194,786.6q9.72,16.56,9.72,31.44v377.4h97.56V820.11a171.7,171.7,0,0,0-6.87-46.86,175,175,0,0,0-20-45.36,147.59,147.59,0,0,0-32-36.6A119.38,119.38,0,0,0,2200.62,669,162.19,162.19,0,0,0,2273.22,610.68Zm-70.68-89.52q0,16.2-8.58,33.33A138.9,138.9,0,0,1,2172.24,586a115.3,115.3,0,0,1-29.73,23.61c-11,6.09-22.35,9.15-33.72,9.15h-61.65V157.62h47.91c50.88,0,107.49,10.38,107.49,79.8Z" transform="translate(-45.58 -45.72)"/><polygon id="E-2" data-name="E" class="cls-1" points="1604.6 116.91 1604.6 525.39 1814.84 525.39 1814.84 633.3 1604.6 633.3 1604.6 1041.81 1814.84 1041.81 1814.84 1149.72 1501.58 1149.72 1501.58 9 1814.84 9 1814.84 116.91 1604.6 116.91"/><path id="S-2" data-name="S" class="cls-2" d="M1469.58,804.9V1068c-53.25,192.09-333.6,146.16-332.55,0l-.48-171.72,74.34.18,5.31,140.61c.36,92.88,168.84,88.71,167.13-.06q0-104.22.12-208.41L1125,437.37V174.24c-1.14-47.31,45.09-123.6,177-128.4,94.74-3.48,154.77,67.53,157.11,128.4V353.85q-39.69-1.08-79.35-2.1V229.32c-.18-118.71-162-112.47-165.51-.24q.27,89.5.54,179.07Q1342.17,606.51,1469.58,804.9Z" transform="translate(-45.58 -45.72)"/><polygon id="X" class="cls-1" points="854.72 580.2 991.16 1149.72 900.5 1149.72 809.09 769.44 717.89 1149.72 626.27 1149.72 762.98 577.71 626.27 9 717.89 9 808.52 387.24 898.91 9 991.43 9 854.72 579.09 854.6 579.63 854.72 580.2"/></g></g></svg>