<?xml version="1.0" standalone="no"?>
<!DOCTYPE svg PUBLIC "-//W3C//DTD SVG 20010904//EN"
 "http://www.w3.org/TR/2001/REC-SVG-20010904/DTD/svg10.dtd">
<svg version="1.0" xmlns="http://www.w3.org/2000/svg"
 width="700.000000pt" height="700.000000pt" viewBox="0 0 700.000000 700.000000"
 preserveAspectRatio="xMidYMid meet">
<metadata>
Created by potrace 1.14, written by Peter Selinger 2001-2017
</metadata>
<g transform="translate(0.000000,700.000000) scale(0.100000,-0.100000)"
fill="#000000" stroke="none">
<path d="M0 6386 l0 -614 757 -893 c422 -497 759 -887 761 -879 2 14 -349
2888 -363 2968 l-6 32 -574 0 -575 0 0 -614z"/>
<path d="M1640 6986 c0 -12 493 -2308 522 -2431 11 -48 20 -4 230 1185 119
679 218 1241 218 1248 0 9 -104 12 -485 12 -402 0 -485 -2 -485 -14z"/>
<path d="M2715 6978 c-13 -56 -446 -2530 -443 -2533 3 -2 1439 2525 1446 2546
2 5 -207 9 -497 9 l-501 0 -5 -22z"/>
<path d="M4273 6978 c-387 -832 -1382 -3013 -1376 -3018 4 -4 908 -100 2008
-214 1100 -115 2021 -210 2048 -213 l47 -6 0 1737 0 1736 -1358 0 -1359 0 -10
-22z"/>
<path d="M0 4405 c0 -672 4 -1205 9 -1205 10 0 1481 627 1489 635 3 3 -4 15
-15 28 -11 12 -323 380 -694 817 -370 437 -699 825 -731 863 l-58 68 0 -1206z"/>
<path d="M5010 3216 c-1086 -139 -1980 -254 -1987 -257 -7 -2 386 -622 938
-1481 l951 -1478 1044 0 1044 0 0 1735 c0 954 -3 1734 -7 1734 -5 -1 -897
-115 -1983 -253z"/>
<path d="M0 1743 c0 -795 2 -1444 4 -1442 9 11 1517 2489 1522 2503 4 10 -2
17 -18 21 -310 74 -1486 357 -1495 360 -10 3 -13 -289 -13 -1442z"/>
<path d="M745 1317 c-699 -1145 -740 -1215 -743 -1264 l-4 -53 531 0 c292 0
531 3 531 8 0 4 97 572 214 1262 118 690 213 1256 212 1257 -1 1 -335 -543
-741 -1210z"/>
<path d="M2216 2373 c-25 -86 -718 -2346 -722 -2358 -5 -13 62 -15 603 -15
l610 0 -238 1191 c-131 656 -241 1194 -243 1196 -2 3 -7 -4 -10 -14z"/>
<path d="M2370 2225 c0 -6 100 -508 221 -1117 l222 -1108 725 0 c685 0 724 1
711 17 -13 16 -1851 2186 -1871 2208 -5 6 -8 6 -8 0z"/>
</g>
</svg>
